<?xml version="1.0" encoding="UTF-8"?>
<svg version="1.1" xmlns="http://www.w3.org/2000/svg" width="500" height="500">
<path d="M0 0 C165 0 330 0 500 0 C500 165 500 330 500 500 C335 500 170 500 0 500 C0 335 0 170 0 0 Z " fill="#F0E9FD" transform="translate(0,0)"/>
<path d="M0 0 C2.97 0 5.94 0 9 0 C9.33 20.46 9.66 40.92 10 62 C12.97 59.36 15.94 56.72 19 54 C22.4765625 51.9765625 22.4765625 51.9765625 25.625 50.625 C26.66914063 50.16351563 27.71328125 49.70203125 28.7890625 49.2265625 C36.46964101 46.29261888 43.0303185 45.6631502 51.1875 45.6875 C52.24775391 45.67138672 53.30800781 45.65527344 54.40039062 45.63867188 C64.87127382 45.63229108 73.39010385 47.88147308 83 52 C83 34.84 83 17.68 83 0 C85.97 0 88.94 0 92 0 C92.33 39.93 92.66 79.86 93 121 C97.35184161 118.41784641 97.35184161 118.41784641 101.05078125 115.328125 C101.58509766 114.82796875 102.11941406 114.3278125 102.66992188 113.8125 C103.21197266 113.296875 103.75402344 112.78125 104.3125 112.25 C107.78601523 108.97485077 111.27640588 105.7385088 114.8828125 102.609375 C119.21051718 98.84488966 123.39359388 94.93876742 127.5625 91 C128.27857422 90.32710938 128.99464844 89.65421875 129.73242188 88.9609375 C133.12091727 85.76668707 136.47288391 82.54694714 139.75390625 79.2421875 C142.21343271 76.76543204 144.7240162 74.39876871 147.375 72.125 C149.73996782 70.11909405 149.73996782 70.11909405 152 68 C154.53049402 67.92686433 157.03304837 67.90752473 159.5625 67.9375 C160.62887695 67.94426758 160.62887695 67.94426758 161.71679688 67.95117188 C163.47790013 67.96299136 165.23896036 67.98092737 167 68 C163.91961893 71.23550817 160.61904538 73.92571834 157.0625 76.625 C155.89058204 77.5181728 154.7187082 78.4114035 153.546875 79.3046875 C152.95326172 79.75553711 152.35964844 80.20638672 151.74804688 80.67089844 C149.09551058 82.68771514 146.45391956 84.7186545 143.8125 86.75 C143.28624023 87.15460449 142.75998047 87.55920898 142.21777344 87.97607422 C136.81113644 92.13711136 131.42347338 96.3225767 126.04467773 100.51953125 C121.99411961 103.67909566 117.9316303 106.8212084 113.84765625 109.9375 C113.01516357 110.5759082 112.1826709 111.21431641 111.32495117 111.87207031 C109.71567177 113.10561063 108.10265318 114.33429098 106.4855957 115.55761719 C105.40604614 116.3876123 105.40604614 116.3876123 104.3046875 117.234375 C103.66515137 117.72131836 103.02561523 118.20826172 102.36669922 118.70996094 C101.91568848 119.13567383 101.46467773 119.56138672 101 120 C101 120.66 101 121.32 101 122 C102.25103516 122.11214844 102.25103516 122.11214844 103.52734375 122.2265625 C115.89353674 123.67140979 122.9080177 128.60639831 130.64257812 138.22509766 C134.82737389 143.69694391 138.67209279 149.42600671 142.58984375 155.08984375 C150.02092739 165.81907326 157.9112603 175.22906126 167.2890625 184.296875 C168.18367187 185.18890625 169.07828125 186.0809375 170 187 C170 187.33 170 187.66 170 188 C167.81505105 188.16364389 165.62647024 188.27913269 163.4375 188.375 C161.61025391 188.47941406 161.61025391 188.47941406 159.74609375 188.5859375 C151.79434279 187.34218083 147.30476539 180.25840165 142.75 174.125 C141.91311646 173.01560059 141.91311646 173.01560059 141.05932617 171.88378906 C136.8677818 166.282367 132.8896993 160.54913116 128.96289062 154.76049805 C118.29981706 137.83894754 118.29981706 137.83894754 103 126 C100.19522931 125.66299267 97.85641907 125.76586729 95 126 C92.33007576 128.66992424 92.72800334 130.00240023 92.68115234 133.73486328 C92.66128265 134.93595734 92.64141296 136.13705139 92.62094116 137.37454224 C92.60938995 138.67664642 92.59783875 139.97875061 92.5859375 141.3203125 C92.5672323 142.66268107 92.54765938 144.00503781 92.5272522 145.34738159 C92.47585609 148.88186678 92.43627074 152.41639012 92.39910889 155.9510498 C92.35911586 159.55730688 92.30800217 163.16340422 92.2578125 166.76953125 C92.1609649 173.84623729 92.07658858 180.92304339 92 188 C89.03 188 86.06 188 83 188 C83 173.48 83 158.96 83 144 C82.34 144 81.68 144 81 144 C81 143.34 81 142.68 81 142 C80.34 142 79.68 142 79 142 C79.495 147.445 79.495 147.445 80 153 C78.35 153 76.7 153 75 153 C75.33 149.37 75.66 145.74 76 142 C74.02 142.99 74.02 142.99 72 144 C72 143.01 72 142.02 72 141 C75.63 141 79.26 141 83 141 C82.93143799 139.8553125 82.86287598 138.710625 82.79223633 137.53125 C82.21781507 127.21572061 81.91447897 116.91893243 81.839077 106.58731079 C81.82415065 104.55322022 81.8064889 102.51916958 81.78811646 100.48510742 C81.68926832 89.28161321 81.68926832 89.28161321 81.67407227 83.71289062 C81.66594309 80.91182783 81.64742857 78.11121368 81.61714172 75.31030273 C81.58912186 72.70056051 81.57606288 70.09060256 81.58000183 67.48071289 C81.56351089 66.30758545 81.54701996 65.13445801 81.5300293 63.92578125 C81.52416306 62.89880127 81.51829681 61.87182129 81.51225281 60.8137207 C80.86811682 57.27558733 79.4412243 55.58993515 77 53 C69.34279591 47.92407059 56.43481897 48.82077807 47.77783203 50.40722656 C35.43665486 53.31796092 22.38305445 59.29928887 14.6875 69.7890625 C10.69210365 76.45784905 9.69253463 82.5305756 9.5859375 90.1171875 C9.56657135 90.97434357 9.5472052 91.83149963 9.5272522 92.71463013 C9.46778744 95.43465428 9.42120431 98.15472152 9.375 100.875 C9.3367897 102.72658028 9.29773622 104.57814337 9.2578125 106.4296875 C9.16211336 110.95298425 9.07796094 115.47636416 9 120 C6.03 120 3.06 120 0 120 C0 80.4 0 40.8 0 0 Z " fill="#983269" transform="translate(192,133)"/>
<path d="M0 0 C2.33094534 0.3496418 4.66404762 0.68554487 7 1 C7 1.33 7 1.66 7 2 C4.69 2 2.38 2 0 2 C0.495 2.99 0.495 2.99 1 4 C1.92232422 3.82210937 1.92232422 3.82210937 2.86328125 3.640625 C5.2781042 3.25548577 7.55382025 2.98265121 10 3 C12.0625 4.5 12.0625 4.5 13 7 C13.55310065 11.34579086 13.48980198 13.28060335 11 16.9375 C10.34 17.618125 9.68 18.29875 9 19 C7.68 18.67 6.36 18.34 5 18 C4.505 19.485 4.505 19.485 4 21 C4.61875 21.103125 5.2375 21.20625 5.875 21.3125 C8 22 8 22 10 25 C9.01 25.495 9.01 25.495 8 26 C7.814375 27.1446875 7.814375 27.1446875 7.625 28.3125 C6.86156285 31.59527974 5.50142651 32.8213382 3 35 C4.32 35.33 5.64 35.66 7 36 C5.02 36 3.04 36 1 36 C1 35.34 1 34.68 1 34 C-0.32 33.67 -1.64 33.34 -3 33 C-3.495 33.99 -3.495 33.99 -4 35 C-4.66 35 -5.32 35 -6 35 C-6.33 34.01 -6.66 33.02 -7 32 C-7.33 31.34 -7.66 30.68 -8 30 C-8.33 32.31 -8.66 34.62 -9 37 C-7.02 37 -5.04 37 -3 37 C-3.99 37.33 -4.98 37.66 -6 38 C-7.20882096 40.00016466 -7.20882096 40.00016466 -8 42 C-8 41.01 -8 40.02 -8 39 C-8.66 39 -9.32 39 -10 39 C-10 42.3 -10 45.6 -10 49 C-8.329375 48.7525 -8.329375 48.7525 -6.625 48.5 C-2.39596774 47.91668521 1.73626766 48 6 48 C6.99 47.67 7.98 47.34 9 47 C9.08333357 42.1666528 8.95261487 37.76307437 8 33 C8.66 33 9.32 33 10 33 C10 31.35 10 29.7 10 28 C10.66 27.67 11.32 27.34 12 27 C12.91232429 30.38628474 13.49836427 33.78996751 14.0625 37.25 C14.23910156 38.32765625 14.41570312 39.4053125 14.59765625 40.515625 C14.79681641 41.74539062 14.79681641 41.74539062 15 43 C14.01 42.505 14.01 42.505 13 42 C12.505 42.99 12.505 42.99 12 44 C12.99 44.33 13.98 44.66 15 45 C14.67 48.63 14.34 52.26 14 56 C14.99 56 15.98 56 17 56 C17.66 56.66 18.32 57.32 19 58 C19.99 58 20.98 58 22 58 C21.6875 59.9375 21.6875 59.9375 21 62 C18.27498092 62.90833969 16.37766029 63.18359985 13.55078125 63.31640625 C12.70322266 63.35830078 11.85566406 63.40019531 10.98242188 63.44335938 C10.10134766 63.48267578 9.22027344 63.52199219 8.3125 63.5625 C7.41982422 63.60568359 6.52714844 63.64886719 5.60742188 63.69335938 C3.40509892 63.79935353 1.20266527 63.90142051 -1 64 C-1 63.67 -1 63.34 -1 63 C3.62 62.67 8.24 62.34 13 62 C13 61.01 13 60.02 13 59 C5.08 59.495 5.08 59.495 -3 60 C-3 61.65 -3 63.3 -3 65 C-9.435 65.495 -9.435 65.495 -16 66 C-15.505 64.515 -15.505 64.515 -15 63 C-15.99 63.495 -15.99 63.495 -17 64 C-18.4465242 64.15067214 -19.8987934 64.24861036 -21.3515625 64.31640625 C-22.20234375 64.35830078 -23.053125 64.40019531 -23.9296875 64.44335938 C-24.81914062 64.48267578 -25.70859375 64.52199219 -26.625 64.5625 C-27.97078125 64.62727539 -27.97078125 64.62727539 -29.34375 64.69335938 C-31.56234283 64.79956861 -33.7810488 64.90161194 -36 65 C-36.33 65.99 -36.66 66.98 -37 68 C-37.09964824 62.62895991 -37.17183292 57.25847014 -37.21972656 51.88671875 C-37.23971364 50.06338108 -37.26691286 48.24010644 -37.30175781 46.41699219 C-37.5533012 32.90763254 -37.23396233 22.46229861 -27.47265625 12.171875 C-20.84496554 6.35039627 -9.28837828 -2.73081915 0 0 Z " fill="#EDE5F9" transform="translate(238,185)"/>
<path d="M0 0 C2.97 0 5.94 0 9 0 C9.33 20.46 9.66 40.92 10 62 C12.97 59.36 15.94 56.72 19 54 C22.4765625 51.9765625 22.4765625 51.9765625 25.625 50.625 C26.66914063 50.16351563 27.71328125 49.70203125 28.7890625 49.2265625 C36.62613163 46.23284023 43.30086117 45.69205936 51.625 45.75 C52.74390625 45.74226563 53.8628125 45.73453125 55.015625 45.7265625 C56.09585938 45.72914063 57.17609375 45.73171875 58.2890625 45.734375 C59.75400146 45.73775879 59.75400146 45.73775879 61.24853516 45.74121094 C64.16437441 46.01546024 66.34975124 46.78386853 69 48 C69 48.33 69 48.66 69 49 C67.8140625 49.01417969 66.628125 49.02835938 65.40625 49.04296875 C47.15799776 49.48851049 31.49223586 53.57515105 17.6875 66.2109375 C11.26363566 73.0214233 9.71271787 81.09411726 9.5859375 90.1171875 C9.56657135 90.97434357 9.5472052 91.83149963 9.5272522 92.71463013 C9.46778744 95.43465428 9.42120431 98.15472152 9.375 100.875 C9.3367897 102.72658028 9.29773622 104.57814337 9.2578125 106.4296875 C9.16211336 110.95298425 9.07796094 115.47636416 9 120 C6.03 120 3.06 120 0 120 C0 80.4 0 40.8 0 0 Z " fill="#852A60" transform="translate(192,133)"/>
<path d="M0 0 C7.74753426 -0.7417852 13.58566277 0.47515746 20 5 C25.3955351 9.7574148 29.62845854 15.24387329 33.8125 21.0625 C34.41924561 21.89450928 35.02599121 22.72651855 35.65112305 23.58374023 C38.40357095 27.3669477 41.12797264 31.16830542 43.8125 35 C50.8178329 44.99613302 58.59432307 53.77123048 67.34765625 62.28515625 C69 64 69 64 69 65 C66.81505105 65.16364389 64.62647024 65.27913269 62.4375 65.375 C60.61025391 65.47941406 60.61025391 65.47941406 58.74609375 65.5859375 C50.79434279 64.34218083 46.30476539 57.25840165 41.75 51.125 C41.19207764 50.38540039 40.63415527 49.64580078 40.05932617 48.88378906 C35.8677818 43.282367 31.8896993 37.54913116 27.96289062 31.76049805 C16.37224325 14.39685494 16.37224325 14.39685494 0 2 C0 1.34 0 0.68 0 0 Z " fill="#913168" transform="translate(293,256)"/>
<path d="M0 0 C1.39456452 0.00667256 2.78911118 0.01863093 4.18359375 0.03515625 C5.2499707 0.04192383 5.2499707 0.04192383 6.33789062 0.04882812 C8.09899388 0.06064761 9.86005411 0.07858362 11.62109375 0.09765625 C8.54071268 3.33316442 5.24013913 6.02337459 1.68359375 8.72265625 C0.51167579 9.61582905 -0.66019805 10.50905975 -1.83203125 11.40234375 C-2.72245117 12.07861816 -2.72245117 12.07861816 -3.63085938 12.76855469 C-6.28339567 14.78537139 -8.92498669 16.81631075 -11.56640625 18.84765625 C-12.09121582 19.25081055 -12.61602539 19.65396484 -13.15673828 20.06933594 C-16.32608122 22.50700378 -19.48498781 24.95756711 -22.63671875 27.41796875 C-32.46792693 35.0919885 -42.37212351 42.65391868 -52.37890625 50.09765625 C-52.37890625 46.29269504 -51.39629499 45.61678386 -48.87890625 42.84765625 C-48.22921875 42.120625 -47.57953125 41.39359375 -46.91015625 40.64453125 C-44.22792995 37.945748 -41.41438606 35.47653 -38.53759766 32.98925781 C-34.87875344 29.78311384 -31.35217189 26.43823483 -27.81640625 23.09765625 C-27.10033203 22.42476562 -26.38425781 21.751875 -25.64648438 21.05859375 C-22.25798898 17.86434332 -18.90602234 14.64460339 -15.625 11.33984375 C-13.16547354 8.86308829 -10.65489005 6.49642496 -8.00390625 4.22265625 C-3.20722403 0.09269434 -3.20722403 0.09269434 0 0 Z " fill="#B84179" transform="translate(347.37890625,200.90234375)"/>
<path d="M0 0 C-0.66 0.33 -1.32 0.66 -2 1 C-2 1.66 -2 2.32 -2 3 C-5.75 4.125 -5.75 4.125 -8 3 C-8 3.66 -8 4.32 -8 5 C-42.32 5 -76.64 5 -112 5 C-112 3.68 -112 2.36 -112 1 C-102.12199067 0.8671024 -92.24395256 0.73659787 -82.36587524 0.60884857 C-77.77515148 0.54940973 -73.1844398 0.48925709 -68.59375 0.42724609 C-45.7276925 0.11896753 -22.86827495 -0.07989883 0 0 Z " fill="#272629" transform="translate(260,253)"/>
<path d="M0 0 C1.93242285 3.34520258 2.5463853 6.44767482 3.125 10.25 C3.37636719 11.86648437 3.37636719 11.86648437 3.6328125 13.515625 C3.75398438 14.33546875 3.87515625 15.1553125 4 16 C3.34 15.67 2.68 15.34 2 15 C1.67 15.66 1.34 16.32 1 17 C1.99 17.33 2.98 17.66 4 18 C3.67 21.63 3.34 25.26 3 29 C3.99 29 4.98 29 6 29 C6.66 29.66 7.32 30.32 8 31 C8.99 31 9.98 31 11 31 C10.6875 32.9375 10.6875 32.9375 10 35 C7.27498092 35.90833969 5.37766029 36.18359985 2.55078125 36.31640625 C1.70322266 36.35830078 0.85566406 36.40019531 -0.01757812 36.44335938 C-0.89865234 36.48267578 -1.77972656 36.52199219 -2.6875 36.5625 C-3.58017578 36.60568359 -4.47285156 36.64886719 -5.39257812 36.69335938 C-7.59490108 36.79935353 -9.79733473 36.90142051 -12 37 C-12 36.67 -12 36.34 -12 36 C-7.38 35.67 -2.76 35.34 2 35 C2 34.01 2 33.02 2 32 C-5.92 32.495 -5.92 32.495 -14 33 C-14 34.65 -14 36.3 -14 38 C-20.435 38.495 -20.435 38.495 -27 39 C-26.34 36.36 -25.68 33.72 -25 31 C-26.98 30.34 -28.96 29.68 -31 29 C-31.33 31.31 -31.66 33.62 -32 36 C-32.33 36 -32.66 36 -33 36 C-32.97679687 35.18015625 -32.95359375 34.3603125 -32.9296875 33.515625 C-32.91164062 32.43796875 -32.89359375 31.3603125 -32.875 30.25 C-32.85179687 29.18265625 -32.82859375 28.1153125 -32.8046875 27.015625 C-32.99866788 24.02056789 -33.58062507 22.57052152 -35 20 C-35 19.01 -35 18.02 -35 17 C-32.125 16.375 -32.125 16.375 -29 16 C-28.34 16.66 -27.68 17.32 -27 18 C-28.65 18 -30.3 18 -32 18 C-31.58565093 22.83407252 -29.62206046 24.89537674 -26 28 C-25.01 28.33 -24.02 28.66 -23 29 C-21.8125 32.5625 -21.8125 32.5625 -21 36 C-17.27385847 34.88145414 -17.27385847 34.88145414 -15 32 C-12.6859378 31.26924352 -10.35171131 30.59861742 -8 30 C-10.55068845 27.64551835 -11.71017358 27.01672076 -15.25 26.8125 C-16.1575 26.874375 -17.065 26.93625 -18 27 C-15.54155554 24.54155554 -13.34991356 24.3266849 -10.0390625 23.57421875 C-7.38546448 22.82694115 -5.28227568 21.52151712 -3 20 C-2.67 20 -2.34 20 -2 20 C-1.91666643 15.1666528 -2.04738513 10.76307437 -3 6 C-2.34 6 -1.68 6 -1 6 C-1.020625 5.195625 -1.04125 4.39125 -1.0625 3.5625 C-1 1 -1 1 0 0 Z " fill="#76737D" transform="translate(249,212)"/>
<path d="M0 0 C0.20821058 3.74779041 -0.35047855 5.7009571 -2 9 C-2.42151885 10.57158878 -2.7968834 12.15629082 -3.125 13.75 C-3.37636719 14.94882813 -3.37636719 14.94882813 -3.6328125 16.171875 C-3.75398437 16.77515625 -3.87515625 17.3784375 -4 18 C-2.02 18 -0.04 18 2 18 C1.01 18.33 0.02 18.66 -1 19 C-2.20882096 21.00016466 -2.20882096 21.00016466 -3 23 C-3 22.01 -3 21.02 -3 20 C-3.66 20 -4.32 20 -5 20 C-5 23.3 -5 26.6 -5 30 C-3.329375 29.7525 -3.329375 29.7525 -1.625 29.5 C1.97313991 29.00370484 5.37545192 29 9 29 C8.67 29.99 8.34 30.98 8 32 C4.9375 33.1875 4.9375 33.1875 2 34 C2.78375 34.28875 3.5675 34.5775 4.375 34.875 C7 36 7 36 9 38 C7 40 7 40 3.875 40.125 C2.92625 40.08375 1.9775 40.0425 1 40 C0.67 40.99 0.34 41.98 0 43 C-2.475 43.495 -2.475 43.495 -5 44 C-5.99 40.535 -5.99 40.535 -7 37 C-7.721875 36.95875 -8.44375 36.9175 -9.1875 36.875 C-13.35236242 35.57926503 -14.58818797 33.61771805 -17 30 C-16.8125 27.625 -16.8125 27.625 -16 26 C-13.36 26 -10.72 26 -8 26 C-7.67 20.39 -7.34 14.78 -7 9 C-6.34 9.33 -5.68 9.66 -5 10 C-4.34 8.02 -3.68 6.04 -3 4 C-3.99 3.67 -4.98 3.34 -6 3 C-2.25 0 -2.25 0 0 0 Z " fill="#E9E2F5" transform="translate(233,204)"/>
<path d="M0 0 C34.32 0 68.64 0 104 0 C104 0.99 104 1.98 104 3 C69.68 3 35.36 3 0 3 C0 2.01 0 1.02 0 0 Z " fill="#000000" transform="translate(148,302)"/>
<path d="M0 0 C0.99 0.66 1.98 1.32 3 2 C2.67 3.65 2.34 5.3 2 7 C2.66 7 3.32 7 4 7 C4.33 6.01 4.66 5.02 5 4 C6.32 4.66 7.64 5.32 9 6 C9 6.66 9 7.32 9 8 C11.15084582 7.18349155 11.15084582 7.18349155 11.875 5.125 C13.19480413 2.63203665 14.67721672 1.54852219 17 0 C16.979375 1.0725 16.95875 2.145 16.9375 3.25 C16.84936204 6.72819237 16.84936204 6.72819237 17.5 8.9375 C18.35754848 12.47488749 18.34815424 15.34438051 18 19 C15.875 21.0625 15.875 21.0625 13 22 C9.9375 21.625 9.9375 21.625 7 21 C5.66018514 21.3062434 4.32488113 21.63451555 3 22 C2.01 21.67 1.02 21.34 0 21 C-0.66 21 -1.32 21 -2 21 C-2.74926071 17.33694766 -3.2380014 14.57644848 -2 11 C-1.01 11.33 -0.02 11.66 1 12 C1.33 11.34 1.66 10.68 2 10 C1.01 9.67 0.02 9.34 -1 9 C-1.125 2.25 -1.125 2.25 0 0 Z " fill="#EDE6FA" transform="translate(230,213)"/>
<path d="M0 0 C0 0.99 0 1.98 0 3 C-1.98 3.33 -3.96 3.66 -6 4 C-5.19175781 3.89300781 -4.38351563 3.78601563 -3.55078125 3.67578125 C-2.48214844 3.55589844 -1.41351563 3.43601563 -0.3125 3.3125 C0.74324219 3.18488281 1.79898438 3.05726563 2.88671875 2.92578125 C6.52307654 3.01246983 8.16265613 3.76591122 11 6 C11.495 7.485 11.495 7.485 12 9 C7.22721102 9.94864925 2.60534023 10.13171421 -2.2421875 10.09765625 C-3.01055939 10.0962413 -3.77893127 10.09482635 -4.57058716 10.09336853 C-7.00543239 10.08780683 -9.44018294 10.0752616 -11.875 10.0625 C-13.53385283 10.05748004 -15.19270712 10.05291801 -16.8515625 10.04882812 C-20.9010777 10.03784998 -24.95052284 10.02061206 -29 10 C-29 9.01 -29 8.02 -29 7 C-26.00519083 6.1276588 -23.36424089 5.89170234 -20.25 5.9375 C-19.45078125 5.94652344 -18.6515625 5.95554688 -17.828125 5.96484375 C-17.22484375 5.97644531 -16.6215625 5.98804688 -16 6 C-16 4.35 -16 2.7 -16 1 C-10.61509359 0.08342019 -5.45769811 -0.11138159 0 0 Z " fill="#EAE3F7" transform="translate(251,244)"/>
<path d="M0 0 C1.65 0.33 3.3 0.66 5 1 C4.34 2.65 3.68 4.3 3 6 C3.61875 6.103125 4.2375 6.20625 4.875 6.3125 C7 7 7 7 9 10 C8.01 10.495 8.01 10.495 7 11 C6.87625 11.763125 6.7525 12.52625 6.625 13.3125 C5.86156285 16.59527974 4.50142651 17.8213382 2 20 C3.32 20.33 4.64 20.66 6 21 C4.02 21 2.04 21 0 21 C0 20.34 0 19.68 0 19 C-1.32 18.67 -2.64 18.34 -4 18 C-4.33 18.66 -4.66 19.32 -5 20 C-5.66 20 -6.32 20 -7 20 C-7.33 17.69 -7.66 15.38 -8 13 C-7.01 13 -6.02 13 -5 13 C-5 9.37 -5 5.74 -5 2 C-2 6 -2 6 -2 8 C-0.7058258 6.77119784 -0.7058258 6.77119784 1 4 C0.69159401 1.84725052 0.69159401 1.84725052 0 0 Z " fill="#726F78" transform="translate(239,200)"/>
<path d="M0 0 C0.99 0.33 1.98 0.66 3 1 C3.6875 3.0625 3.6875 3.0625 4 5 C4.845625 4.484375 5.69125 3.96875 6.5625 3.4375 C10.62818269 1.73730542 12.77082542 1.94270635 17 3 C17.66 3.66 18.32 4.32 19 5 C18.81090096 8.46681577 18.66408235 11.06424759 16.625 13.9375 C15 15 15 15 12 15 C12.33 14.01 12.66 13.02 13 12 C13.99 12 14.98 12 16 12 C16 10.68 16 9.36 16 8 C11.10993503 7.71788087 8.71715351 7.79555732 5 11 C3 11.9375 3 11.9375 1 12 C-1.25 10.0625 -1.25 10.0625 -3 8 C-2.09456151 5.28368454 -1.07525194 2.65228812 0 0 Z " fill="#C3BECE" transform="translate(232,189)"/>
<path d="M0 0 C1.32 0 2.64 0 4 0 C3.67 3.3 3.34 6.6 3 10 C3.99 10 4.98 10 6 10 C6.66 10.66 7.32 11.32 8 12 C8.99 12 9.98 12 11 12 C10.6875 13.9375 10.6875 13.9375 10 16 C7.27498092 16.90833969 5.37766029 17.18359985 2.55078125 17.31640625 C1.70322266 17.35830078 0.85566406 17.40019531 -0.01757812 17.44335938 C-0.89865234 17.48267578 -1.77972656 17.52199219 -2.6875 17.5625 C-3.58017578 17.60568359 -4.47285156 17.64886719 -5.39257812 17.69335938 C-7.59490108 17.79935353 -9.79733473 17.90142051 -12 18 C-12 17.67 -12 17.34 -12 17 C-7.38 16.67 -2.76 16.34 2 16 C2 15.01 2 14.02 2 13 C0.68 13 -0.64 13 -2 13 C-2.66 10.36 -3.32 7.72 -4 5 C-3.34 5.33 -2.68 5.66 -2 6 C-1.34 4.02 -0.68 2.04 0 0 Z " fill="#D9D2E5" transform="translate(249,231)"/>
<path d="M0 0 C-0.66 0.33 -1.32 0.66 -2 1 C-2 1.66 -2 2.32 -2 3 C-5.75 4.125 -5.75 4.125 -8 3 C-9.39342165 2.89669098 -10.79155481 2.8535652 -12.18875122 2.84178162 C-13.50548325 2.82709839 -13.50548325 2.82709839 -14.84881592 2.81211853 C-15.81410217 2.80636307 -16.77938843 2.8006076 -17.77392578 2.79467773 C-19.29592087 2.77982834 -19.29592087 2.77982834 -20.84866333 2.76467896 C-24.21418903 2.73300331 -27.57972887 2.70828255 -30.9453125 2.68359375 C-33.27416356 2.66302946 -35.60301084 2.64203313 -37.93185425 2.62062073 C-44.07046455 2.56534584 -50.20910883 2.51596047 -56.34777832 2.46777344 C-62.60818517 2.41759792 -68.86854249 2.36189127 -75.12890625 2.30664062 C-87.41922855 2.1989928 -99.7095938 2.09756258 -112 2 C-112 1.67 -112 1.34 -112 1 C-102.12199067 0.8671024 -92.24395256 0.73659787 -82.36587524 0.60884857 C-77.77515148 0.54940973 -73.1844398 0.48925709 -68.59375 0.42724609 C-45.7276925 0.11896753 -22.86827495 -0.07989883 0 0 Z " fill="#76737D" transform="translate(260,253)"/>
<path d="M0 0 C6.8359375 -0.1953125 6.8359375 -0.1953125 9 0 C11 2 11 2 11.265625 3.875 C11.26046875 4.57625 11.2553125 5.2775 11.25 6 C11.25515625 6.70125 11.2603125 7.4025 11.265625 8.125 C11 10 11 10 9 12 C5.98173347 12.27240673 3.03629378 12.08675125 0 12 C0 8.04 0 4.08 0 0 Z " fill="#1A191B" transform="translate(185,274)"/>
<path d="M0 0 C0.33 0 0.66 0 1 0 C1 11.55 1 23.1 1 35 C1.99 34.505 1.99 34.505 3 34 C4.70702735 33.93003986 6.41668003 33.91559846 8.125 33.9375 C9.03507813 33.94652344 9.94515625 33.95554688 10.8828125 33.96484375 C11.58148438 33.97644531 12.28015625 33.98804688 13 34 C13.33 31.69 13.66 29.38 14 27 C14.66 27.33 15.32 27.66 16 28 C16 28.99 16 29.98 16 31 C16.33 29.68 16.66 28.36 17 27 C18.98 27.33 20.96 27.66 23 28 C23.33 29.32 23.66 30.64 24 32 C23.34 32 22.68 32 22 32 C22 32.66 22 33.32 22 34 C19.70691037 35.14654482 18.20090344 35.19729117 15.6484375 35.31640625 C14.37226563 35.37924805 14.37226563 35.37924805 13.0703125 35.44335938 C12.18085938 35.48267578 11.29140625 35.52199219 10.375 35.5625 C9.02921875 35.62727539 9.02921875 35.62727539 7.65625 35.69335938 C5.43765717 35.79956861 3.2189512 35.90161194 1 36 C0.67 36.99 0.34 37.98 0 39 C0 26.13 0 13.26 0 0 Z " fill="#B6A9BD" transform="translate(201,214)"/>
<path d="M0 0 C0.20821058 3.74779041 -0.35047855 5.7009571 -2 9 C-2.42151885 10.57158878 -2.7968834 12.15629082 -3.125 13.75 C-3.37636719 14.94882813 -3.37636719 14.94882813 -3.6328125 16.171875 C-3.75398437 16.77515625 -3.87515625 17.3784375 -4 18 C-2.02 18 -0.04 18 2 18 C1.01 18.33 0.02 18.66 -1 19 C-2.20882096 21.00016466 -2.20882096 21.00016466 -3 23 C-3 22.01 -3 21.02 -3 20 C-3.66 20 -4.32 20 -5 20 C-4.95875 21.11375 -4.9175 22.2275 -4.875 23.375 C-5 27 -5 27 -7 29 C-7 29.99 -7 30.98 -7 32 C-5.68 32.33 -4.36 32.66 -3 33 C-3.99 33.66 -4.98 34.32 -6 35 C-6.83905565 33.87926138 -7.67107831 32.75325453 -8.5 31.625 C-9.19609375 30.68527344 -9.19609375 30.68527344 -9.90625 29.7265625 C-11 28 -11 28 -11 26 C-10.01 26 -9.02 26 -8 26 C-7.67 20.39 -7.34 14.78 -7 9 C-6.34 9.33 -5.68 9.66 -5 10 C-4.34 8.02 -3.68 6.04 -3 4 C-3.99 3.67 -4.98 3.34 -6 3 C-2.25 0 -2.25 0 0 0 Z " fill="#C7C2D2" transform="translate(233,204)"/>
<path d="M0 0 C0 0.33 0 0.66 0 1 C-1.65 1 -3.3 1 -5 1 C-4.58565093 5.83407252 -2.62206046 7.89537674 1 11 C1.99 11.33 2.98 11.66 4 12 C5.1875 15.5625 5.1875 15.5625 6 19 C7.65 19.33 9.3 19.66 11 20 C11 20.33 11 20.66 11 21 C7.37 21.33 3.74 21.66 0 22 C0.66 19.36 1.32 16.72 2 14 C0.02 13.34 -1.96 12.68 -4 12 C-4.33 14.31 -4.66 16.62 -5 19 C-5.33 19 -5.66 19 -6 19 C-5.97679687 18.18015625 -5.95359375 17.3603125 -5.9296875 16.515625 C-5.91164062 15.43796875 -5.89359375 14.3603125 -5.875 13.25 C-5.84019531 11.64898437 -5.84019531 11.64898437 -5.8046875 10.015625 C-5.99866788 7.02056789 -6.58062507 5.57052152 -8 3 C-8 2.01 -8 1.02 -8 0 C-5.13822943 -1.43088528 -3.06624227 -0.59991697 0 0 Z " fill="#78747E" transform="translate(222,229)"/>
<path d="M0 0 C2.64 0 5.28 0 8 0 C8.51212685 2.56063425 9.02235427 5.12015418 9.5 7.6875 C9.90241258 10.01156774 9.90241258 10.01156774 11 12 C9.68 12 8.36 12 7 12 C6.34 10.68 5.68 9.36 5 8 C5 9.32 5 10.64 5 12 C3.35 12 1.7 12 0 12 C0 8.04 0 4.08 0 0 Z " fill="#111012" transform="translate(248,274)"/>
<path d="M0 0 C1.65 0 3.3 0 5 0 C6.32 2.31 7.64 4.62 9 7 C9 4.69 9 2.38 9 0 C10.32 0.33 11.64 0.66 13 1 C12.67 4.63 12.34 8.26 12 12 C10.35 11.67 8.7 11.34 7 11 C5.1875 7.9375 5.1875 7.9375 4 5 C4 7.31 4 9.62 4 12 C2.68 11.67 1.36 11.34 0 11 C0 7.37 0 3.74 0 0 Z " fill="#151416" transform="translate(166,274)"/>
<path d="M0 0 C0.66 0.33 1.32 0.66 2 1 C2 1.66 2 2.32 2 3 C3.11375 2.835 4.2275 2.67 5.375 2.5 C8.97313991 2.00370484 12.37545192 2 16 2 C15.67 2.99 15.34 3.98 15 5 C11.9375 6.1875 11.9375 6.1875 9 7 C10.32 7.33 11.64 7.66 13 8 C13 8.66 13 9.32 13 10 C10.03 10.66 7.06 11.32 4 12 C3.34 10.35 2.68 8.7 2 7 C2.33 6.67 2.66 6.34 3 6 C2.01 5.67 1.02 5.34 0 5 C-0.75 3 -0.75 3 -1 1 C-0.67 0.67 -0.34 0.34 0 0 Z " fill="#DFD8EB" transform="translate(226,231)"/>
<path d="M0 0 C1.65 0 3.3 0 5 0 C5 1.32 5 2.64 5 4 C5.99 2.68 6.98 1.36 8 0 C9.32 0.33 10.64 0.66 12 1 C10.515 2.485 10.515 2.485 9 4 C9.309375 4.763125 9.61875 5.52625 9.9375 6.3125 C10.67893593 8.18789677 11.36228217 10.08684652 12 12 C8.20411134 11.45773019 6.52788007 9.79872437 4 7 C4.33 8.65 4.66 10.3 5 12 C3.35 12 1.7 12 0 12 C0 8.04 0 4.08 0 0 Z " fill="#171619" transform="translate(214,274)"/>
<path d="M0 0 C1.32 0.33 2.64 0.66 4 1 C3.34 1.66 2.68 2.32 2 3 C1.87625 3.78375 1.7525 4.5675 1.625 5.375 C0.85514548 8.60838899 -0.53229941 9.85071239 -3 12 C-1.68 12.33 -0.36 12.66 1 13 C-0.98 13 -2.96 13 -5 13 C-5 12.34 -5 11.68 -5 11 C-5.66 11 -6.32 11 -7 11 C-8.125 9.25 -8.125 9.25 -9 7 C-8.125 4.75 -8.125 4.75 -7 3 C-6.21625 3.061875 -5.4325 3.12375 -4.625 3.1875 C-3.75875 3.125625 -2.8925 3.06375 -2 3 C-1.34 2.01 -0.68 1.02 0 0 Z " fill="#9C97A4" transform="translate(244,208)"/>
<path d="M0 0 C1.98 0 3.96 0 6 0 C5.01 0.495 5.01 0.495 4 1 C4 2.32 4 3.64 4 5 C5.65 5 7.3 5 9 5 C8.67 3.35 8.34 1.7 8 0 C9.65 0 11.3 0 13 0 C13 3.96 13 7.92 13 12 C11.35 12 9.7 12 8 12 C8.33 10.02 8.66 8.04 9 6 C7.35 6 5.7 6 4 6 C4 7.65 4 9.3 4 11 C4.66 11.33 5.32 11.66 6 12 C4.02 12 2.04 12 0 12 C0.66 11.67 1.32 11.34 2 11 C2 7.7 2 4.4 2 1 C1.34 0.67 0.68 0.34 0 0 Z " fill="#0D0D0E" transform="translate(130,274)"/>
<path d="M0 0 C1.32 0.33 2.64 0.66 4 1 C5.265625 3.50390625 5.265625 3.50390625 6.25 6.5625 C6.58515625 7.57441406 6.9203125 8.58632813 7.265625 9.62890625 C7.62914062 10.80259766 7.62914062 10.80259766 8 12 C6.35 12 4.7 12 3 12 C3.33 11.01 3.66 10.02 4 9 C2.35 9 0.7 9 -1 9 C-0.67 9.99 -0.34 10.98 0 12 C-1.32 11.67 -2.64 11.34 -4 11 C-2.68 7.37 -1.36 3.74 0 0 Z " fill="#313034" transform="translate(235,274)"/>
<path d="M0 0 C0.99 0.33 1.98 0.66 3 1 C3.6875 3.0625 3.6875 3.0625 4 5 C4.99 4.34 5.98 3.68 7 3 C9.6875 2.875 9.6875 2.875 12 3 C10.68 3.33 9.36 3.66 8 4 C8 4.66 8 5.32 8 6 C6.35 6.33 4.7 6.66 3 7 C3 7.66 3 8.32 3 9 C4.65 8.34 6.3 7.68 8 7 C7.67 7.99 7.34 8.98 7 10 C3.9375 11.1875 3.9375 11.1875 1 12 C-0.32 10.68 -1.64 9.36 -3 8 C-2.09456151 5.28368454 -1.07525194 2.65228812 0 0 Z " fill="#797580" transform="translate(232,189)"/>
<path d="M0 0 C0.99 0 1.98 0 3 0 C4.32 3.96 5.64 7.92 7 12 C5.35 12 3.7 12 2 12 C2.33 11.01 2.66 10.02 3 9 C1.35 9 -0.3 9 -2 9 C-1.67 9.99 -1.34 10.98 -1 12 C-2.32 11.67 -3.64 11.34 -5 11 C-3.35 7.37 -1.7 3.74 0 0 Z " fill="#212123" transform="translate(153,274)"/>
<path d="M0 0 C0.7734375 0.2165625 0.7734375 0.2165625 1.5625 0.4375 C4.68509571 1.15809901 7.82550692 1.57266439 11 2 C11 2.33 11 2.66 11 3 C8.69 3 6.38 3 4 3 C4.33 3.66 4.66 4.32 5 5 C5.92232422 4.82210937 5.92232422 4.82210937 6.86328125 4.640625 C9.28641811 4.25415979 11.54493596 3.95211755 14 4 C16.0625 5.9375 16.0625 5.9375 17 8 C16.67 8.66 16.34 9.32 16 10 C15.01 9.34 14.02 8.68 13 8 C11.03354028 7.93602998 11.03354028 7.93602998 9 8.3125 C8.319375 8.41175781 7.63875 8.51101562 6.9375 8.61328125 C4.79553685 8.99903245 4.79553685 8.99903245 2 10 C1.71125 9.38125 1.4225 8.7625 1.125 8.125 C0.06279958 5.86674235 0.06279958 5.86674235 -2 4 C-0.68 3.67 0.64 3.34 2 3 C2 2.34 2 1.68 2 1 C1.34 0.67 0.68 0.34 0 0 Z " fill="#C9C3D3" transform="translate(234,184)"/>
<path d="M0 0 C0.99 0 1.98 0 3 0 C3.66 0.66 4.32 1.32 5 2 C5.99 2 6.98 2 8 2 C7.6875 3.9375 7.6875 3.9375 7 6 C4.27498092 6.90833969 2.37766029 7.18359985 -0.44921875 7.31640625 C-1.72055664 7.37924805 -1.72055664 7.37924805 -3.01757812 7.44335938 C-4.33918945 7.50233398 -4.33918945 7.50233398 -5.6875 7.5625 C-6.58017578 7.60568359 -7.47285156 7.64886719 -8.39257812 7.69335938 C-10.59490108 7.79935353 -12.79733473 7.90142051 -15 8 C-15 7.67 -15 7.34 -15 7 C-10.38 6.67 -5.76 6.34 -1 6 C-1 5.01 -1 4.02 -1 3 C-1.99 2.67 -2.98 2.34 -4 2 C-2.35 2 -0.7 2 1 2 C0.67 1.34 0.34 0.68 0 0 Z " fill="#706D76" transform="translate(252,241)"/>
<path d="M0 0 C0.33 0 0.66 0 1 0 C1 1.65 1 3.3 1 5 C1.99 4.67 2.98 4.34 4 4 C6.1875 5.1875 6.1875 5.1875 8 7 C8 8.32 8 9.64 8 11 C4.37 10.67 0.74 10.34 -3 10 C-3.33 10.66 -3.66 11.32 -4 12 C-3.33501617 7.61110675 -1.81242323 4.0188515 0 0 Z " fill="#DFD9EC" transform="translate(217,219)"/>
<path d="M0 0 C-2 2 -2 2 -5.125 2.125 C-6.07375 2.08375 -7.0225 2.0425 -8 2 C-8.33 2.99 -8.66 3.98 -9 5 C-10.65 5.33 -12.3 5.66 -14 6 C-14.68707555 3.50935112 -15 1.62113708 -15 -1 C-14.01 -1 -13.02 -1 -12 -1 C-12 -0.34 -12 0.32 -12 1 C-11.01 0.34 -10.02 -0.32 -9 -1 C-3.54545455 -2.36363636 -3.54545455 -2.36363636 0 0 Z " fill="#D2CCDE" transform="translate(242,242)"/>
<path d="M0 0 C1.485 0.99 1.485 0.99 3 2 C2.67 3.65 2.34 5.3 2 7 C2.66 7 3.32 7 4 7 C4.33 6.01 4.66 5.02 5 4 C6.32 4.66 7.64 5.32 9 6 C9 6.66 9 7.32 9 8 C9.66 8.33 10.32 8.66 11 9 C6.66726186 9.92844389 3.33273814 9.92844389 -1 9 C-1.125 2.25 -1.125 2.25 0 0 Z " fill="#D6CFE1" transform="translate(230,213)"/>
<path d="M0 0 C3.3 0 6.6 0 10 0 C9.67 0.66 9.34 1.32 9 2 C8.34 1.67 7.68 1.34 7 1 C7.33 4.63 7.66 8.26 8 12 C6.35 12 4.7 12 3 12 C3.33 8.37 3.66 4.74 4 1 C2.02 1.99 2.02 1.99 0 3 C0 2.01 0 1.02 0 0 Z " fill="#181719" transform="translate(264,274)"/>
<path d="M0 0 C1.93242285 3.34520258 2.5463853 6.44767482 3.125 10.25 C3.29257813 11.32765625 3.46015625 12.4053125 3.6328125 13.515625 C3.75398437 14.33546875 3.87515625 15.1553125 4 16 C3.67 15.34 3.34 14.68 3 14 C0.97536745 13.34786708 0.97536745 13.34786708 -1 13 C-1.66 10.69 -2.32 8.38 -3 6 C-2.34 6 -1.68 6 -1 6 C-1.0309375 4.7934375 -1.0309375 4.7934375 -1.0625 3.5625 C-1 1 -1 1 0 0 Z " fill="#ACA7B6" transform="translate(249,212)"/>
<path d="M0 0 C4 1 4 1 5 2 C5.04080783 3.99958364 5.04254356 6.00045254 5 8 C3.35 8.33 1.7 8.66 0 9 C0 6.03 0 3.06 0 0 Z " fill="#DFD9EB" transform="translate(189,275)"/>
<path d="M0 0 C1.65 0 3.3 0 5 0 C5 3.96 5 7.92 5 12 C3.35 12 1.7 12 0 12 C0 8.04 0 4.08 0 0 Z " fill="#171618" transform="translate(203,274)"/>
<path d="M0 0 C0.99 0.33 1.98 0.66 3 1 C3 2.32 3 3.64 3 5 C-0.47325181 6.1577506 -3.36067448 6.06866652 -7 6 C-7 7.65 -7 9.3 -7 11 C-8.65 10.67 -10.3 10.34 -12 10 C-8.8791423 5.25629629 -6.37467329 4.41972502 -1 3 C-0.67 2.01 -0.34 1.02 0 0 Z " fill="#9B97A3" transform="translate(242,239)"/>
<path d="M0 0 C-0.66 0 -1.32 0 -2 0 C-2 0.66 -2 1.32 -2 2 C-5.75 3.125 -5.75 3.125 -8 2 C-9.59262066 1.84824451 -11.19064856 1.75099675 -12.7890625 1.68359375 C-13.73007813 1.64169922 -14.67109375 1.59980469 -15.640625 1.55664062 C-16.62546875 1.51732422 -17.6103125 1.47800781 -18.625 1.4375 C-19.61757812 1.39431641 -20.61015625 1.35113281 -21.6328125 1.30664062 C-24.08839838 1.20038931 -26.54408703 1.09835036 -29 1 C-29 0.67 -29 0.34 -29 0 C-24.72953289 -0.19656362 -20.45861919 -0.38070249 -16.1875 -0.5625 C-14.97255859 -0.61857422 -13.75761719 -0.67464844 -12.50585938 -0.73242188 C-11.34248047 -0.78076172 -10.17910156 -0.82910156 -8.98046875 -0.87890625 C-7.90692139 -0.9260376 -6.83337402 -0.97316895 -5.72729492 -1.02172852 C-3 -1 -3 -1 0 0 Z " fill="#7F7C87" transform="translate(260,254)"/>
<path d="M0 0 C2.31 0.33 4.62 0.66 7 1 C7 2.32 7 3.64 7 5 C4.21176345 6.0326802 3.1322726 6.04509293 0.25 5.0625 C-0.4925 4.711875 -1.235 4.36125 -2 4 C-1.34 2.68 -0.68 1.36 0 0 Z " fill="#EDE7FA" transform="translate(241,196)"/>
<path d="M0 0 C0.144375 0.598125 0.28875 1.19625 0.4375 1.8125 C0.8872439 3.56150404 1.42892341 5.28677023 2 7 C1.34 7.66 0.68 8.32 0 9 C0 9.99 0 10.98 0 12 C1.32 12.33 2.64 12.66 4 13 C3.01 13.66 2.02 14.32 1 15 C0.16094435 13.87926138 -0.67107831 12.75325453 -1.5 11.625 C-2.19609375 10.68527344 -2.19609375 10.68527344 -2.90625 9.7265625 C-4 8 -4 8 -4 6 C-3.01 6 -2.02 6 -1 6 C-0.67 4.02 -0.34 2.04 0 0 Z " fill="#434146" transform="translate(226,224)"/>
<path d="M0 0 C1.22589844 0.29197266 1.22589844 0.29197266 2.4765625 0.58984375 C3.41628906 0.82380859 3.41628906 0.82380859 4.375 1.0625 C4.375 1.7225 4.375 2.3825 4.375 3.0625 C1.405 3.7225 -1.565 4.3825 -4.625 5.0625 C-5.285 3.4125 -5.945 1.7625 -6.625 0.0625 C-3.99249612 -1.25375194 -2.82320944 -0.68563658 0 0 Z " fill="#AAA5B3" transform="translate(234.625,237.9375)"/>
<path d="M0 0 C0.99 0.33 1.98 0.66 3 1 C3.39044206 2.31774196 3.70955086 3.65667272 4 5 C4.96887581 7.01526169 5.9641321 9.01833966 7 11 C5.68 11 4.36 11 3 11 C0.02586069 7.38854512 -0.32019737 4.5894956 0 0 Z " fill="#625F67" transform="translate(252,275)"/>
<path d="M0 0 C2.97 0.495 2.97 0.495 6 1 C6.33 2.32 6.66 3.64 7 5 C4.69 5.33 2.38 5.66 0 6 C0 4.02 0 2.04 0 0 Z " fill="#CBC5D6" transform="translate(218,241)"/>
<path d="M0 0 C0.66 0.66 1.32 1.32 2 2 C1.67 2.66 1.34 3.32 1 4 C2.65 3.34 4.3 2.68 6 2 C5.67 2.99 5.34 3.98 5 5 C2.0625 6.25 2.0625 6.25 -1 7 C-1.66 6.67 -2.32 6.34 -3 6 C-2.625 3.5625 -2.625 3.5625 -2 1 C-1.34 0.67 -0.68 0.34 0 0 Z " fill="#4E4C52" transform="translate(234,194)"/>
<path d="M0 0 C0.33 0 0.66 0 1 0 C1 1.98 1 3.96 1 6 C3.31 6 5.62 6 8 6 C7.01 6.33 6.02 6.66 5 7 C3.79117904 9.00016466 3.79117904 9.00016466 3 11 C3 10.01 3 9.02 3 8 C2.34 8 1.68 8 1 8 C1 9.32 1 10.64 1 12 C0.34 11.67 -0.32 11.34 -1 11 C-0.67 7.37 -0.34 3.74 0 0 Z " fill="#94909C" transform="translate(227,216)"/>
<path d="M0 0 C1.32 0.33 2.64 0.66 4 1 C3.67 2.98 3.34 4.96 3 7 C1.0625 6.625 1.0625 6.625 -1 6 C-1.33 5.34 -1.66 4.68 -2 4 C-1.0625 1.875 -1.0625 1.875 0 0 Z " fill="#E3DCEF" transform="translate(237,211)"/>
<path d="M0 0 C3.375 -0.125 3.375 -0.125 7 0 C7.66 0.66 8.32 1.32 9 2 C8.67028521 5.29714793 8.3773161 6.6226839 6 9 C5.01 9 4.02 9 3 9 C3.33 8.01 3.66 7.02 4 6 C4.99 6 5.98 6 7 6 C7 4.68 7 3.36 7 2 C4.69 1.67 2.38 1.34 0 1 C0 0.67 0 0.34 0 0 Z " fill="#57555C" transform="translate(241,195)"/>
<path d="M0 0 C0.99 0 1.98 0 3 0 C3.33 1.32 3.66 2.64 4 4 C3.34 4 2.68 4 2 4 C2 4.99 2 5.98 2 7 C0.68 6.67 -0.64 6.34 -2 6 C-1.34 4.02 -0.68 2.04 0 0 Z " fill="#4B494F" transform="translate(153,274)"/>
<path d="M0 0 C0.33 0 0.66 0 1 0 C1 1.65 1 3.3 1 5 C1.99 4.67 2.98 4.34 4 4 C6.1875 5.4375 6.1875 5.4375 8 7 C7.67 7.66 7.34 8.32 7 9 C6.1646875 8.505 6.1646875 8.505 5.3125 8 C2.69715478 6.8690399 0.8193354 6.84337026 -2 7 C-1.34 4.69 -0.68 2.38 0 0 Z " fill="#ACA7B5" transform="translate(217,219)"/>
<path d="M0 0 C0.66 0.33 1.32 0.66 2 1 C-1.20760251 4.80635497 -4.40746109 8.54563567 -8 12 C-8 8.03869629 -6.65122875 7.17085599 -4 4.3125 C-3.2575 3.50425781 -2.515 2.69601563 -1.75 1.86328125 C-1.1725 1.24839844 -0.595 0.63351563 0 0 Z " fill="#9F4074" transform="translate(303,239)"/>
<path d="M0 0 C1.65 0 3.3 0 5 0 C5 1.65 5 3.3 5 5 C4.01 5.495 4.01 5.495 3 6 C2.01 5.67 1.02 5.34 0 5 C0 3.35 0 1.7 0 0 Z " fill="#D1CBDC" transform="translate(134,280)"/>
<path d="M0 0 C0.66 0.33 1.32 0.66 2 1 C1.814375 1.61875 1.62875 2.2375 1.4375 2.875 C0.76313824 5.04160178 0.76313824 5.04160178 2 7 C1.34 7 0.68 7 0 7 C-0.33 7.66 -0.66 8.32 -1 9 C-1.66 9 -2.32 9 -3 9 C-3.33 6.69 -3.66 4.38 -4 2 C-3.01 2 -2.02 2 -1 2 C-0.67 1.34 -0.34 0.68 0 0 Z " fill="#96929E" transform="translate(235,211)"/>
<path d="M0 0 C1.65 0.33 3.3 0.66 5 1 C4.34 3.97 3.68 6.94 3 10 C2.01 9.67 1.02 9.34 0 9 C0.33 8.34 0.66 7.68 1 7 C0.34 6.67 -0.32 6.34 -1 6 C-0.34 5.34 0.32 4.68 1 4 C0.6814823 1.89179203 0.6814823 1.89179203 0 0 Z " fill="#9A96A3" transform="translate(239,200)"/>
<path d="M0 0 C0 2.64 0 5.28 0 8 C-2.97 7.505 -2.97 7.505 -6 7 C-2.86206897 0 -2.86206897 0 0 0 Z " fill="#CBC5D6" transform="translate(247,213)"/>
<path d="M0 0 C2.64 0 5.28 0 8 0 C8.33 1.65 8.66 3.3 9 5 C8.01 5 7.02 5 6 5 C6 4.01 6 3.02 6 2 C5.34 1.67 4.68 1.34 4 1 C3.67 2.32 3.34 3.64 3 5 C2.67 4.01 2.34 3.02 2 2 C1.34 1.34 0.68 0.68 0 0 Z " fill="#090809" transform="translate(248,274)"/>
<path d="M0 0 C6.625 0.75 6.625 0.75 10 3 C6.37 3.33 2.74 3.66 -1 4 C-0.67 2.68 -0.34 1.36 0 0 Z " fill="#323135" transform="translate(223,247)"/>
<path d="M0 0 C0.66 0.33 1.32 0.66 2 1 C2 1.66 2 2.32 2 3 C5.465 2.505 5.465 2.505 9 2 C8.01 2.495 8.01 2.495 7 3 C6.67 3.66 6.34 4.32 6 5 C5.34 4.67 4.68 4.34 4 4 C3.67 4.66 3.34 5.32 3 6 C2.01 5.67 1.02 5.34 0 5 C-0.75 3 -0.75 3 -1 1 C-0.67 0.67 -0.34 0.34 0 0 Z " fill="#B1ACBB" transform="translate(226,231)"/>
<path d="M0 0 C0.66 0 1.32 0 2 0 C2.33 3.3 2.66 6.6 3 10 C2.01 10.495 2.01 10.495 1 11 C0.34 10.67 -0.32 10.34 -1 10 C-1.08907857 6.79317156 -0.8811542 4.08403969 0 1 C0 0.67 0 0.34 0 0 Z " fill="#E9E2F5" transform="translate(232,203)"/>
<path d="M0 0 C0.7734375 0.2165625 0.7734375 0.2165625 1.5625 0.4375 C4.68509571 1.15809901 7.82550692 1.57266439 11 2 C11 2.33 11 2.66 11 3 C9.2984375 3.2165625 9.2984375 3.2165625 7.5625 3.4375 C4.19222799 3.61171478 4.19222799 3.61171478 3 5 C1.33382885 5.04063832 -0.33388095 5.042721 -2 5 C-1.67 4.34 -1.34 3.68 -1 3 C-0.01 3 0.98 3 2 3 C2 2.34 2 1.68 2 1 C1.34 0.67 0.68 0.34 0 0 Z " fill="#B6ACBE" transform="translate(234,184)"/>
<path d="M0 0 C-2 2 -2 2 -5.125 2.125 C-6.548125 2.063125 -6.548125 2.063125 -8 2 C-8.33 1.01 -8.66 0.02 -9 -1 C-3.375 -2.25 -3.375 -2.25 0 0 Z " fill="#EBE4F8" transform="translate(242,242)"/>
<path d="M0 0 C0.26218749 3.14624993 0.24754367 4.61837017 -1.5 7.3125 C-2.2425 8.1478125 -2.2425 8.1478125 -3 9 C-3 7.35 -3 5.7 -3 4 C-3.99 3.67 -4.98 3.34 -6 3 C-2.25 0 -2.25 0 0 0 Z " fill="#A6A1AF" transform="translate(233,204)"/>
<path d="M0 0 C4.875 0.875 4.875 0.875 6 2 C6.04063832 3.66617115 6.042721 5.33388095 6 7 C5.5875 6.54625 5.175 6.0925 4.75 5.625 C2.93591905 3.94049626 1.24714373 3.00734029 -1 2 C-0.67 1.34 -0.34 0.68 0 0 Z " fill="#8F8A96" transform="translate(245,192)"/>
<path d="M0 0 C1.9375 0.0625 1.9375 0.0625 4 1 C5.25 4.0625 5.25 4.0625 6 7 C5.01 7.33 4.02 7.66 3 8 C2.34 7.34 1.68 6.68 1 6 C1.33 5.01 1.66 4.02 2 3 C1.01 2.34 0.02 1.68 -1 1 C-0.67 0.67 -0.34 0.34 0 0 Z " fill="#908C98" transform="translate(222,240)"/>
<path d="M0 0 C1.36421031 2.72842061 0.87807211 4.60953318 0.5625 7.625 C0.40974609 9.12933594 0.40974609 9.12933594 0.25390625 10.6640625 C0.17011719 11.43492187 0.08632812 12.20578125 0 13 C-0.66 12.67 -1.32 12.34 -2 12 C-2.625 8.9375 -2.625 8.9375 -3 6 C-2.34 6 -1.68 6 -1 6 C-1.0309375 4.7934375 -1.0309375 4.7934375 -1.0625 3.5625 C-1 1 -1 1 0 0 Z " fill="#938F9B" transform="translate(249,212)"/>
<path d="M0 0 C1.485 0.99 1.485 0.99 3 2 C2.125 6.75 2.125 6.75 1 9 C0.34 9 -0.32 9 -1 9 C-1.125 2.25 -1.125 2.25 0 0 Z " fill="#ECE5F9" transform="translate(230,213)"/>
<path d="M0 0 C2.64 0.66 5.28 1.32 8 2 C8 2.99 8 3.98 8 5 C5.36 4.34 2.72 3.68 0 3 C0 2.01 0 1.02 0 0 Z " fill="#B55587" transform="translate(260,180)"/>
<path d="M0 0 C3 1 3 1 4.6875 4.0625 C5.120625 5.031875 5.55375 6.00125 6 7 C4.125 6.6875 4.125 6.6875 2 6 C0 3 0 3 0 0 Z " fill="#151516" transform="translate(220,279)"/>
<path d="M0 0 C1.32 1.32 2.64 2.64 4 4 C2.68 4 1.36 4 0 4 C-0.33 6.31 -0.66 8.62 -1 11 C-1.33 11 -1.66 11 -2 11 C-2.19622241 6.78121808 -1.80230168 3.82989106 0 0 Z " fill="#47454B" transform="translate(218,237)"/>
<path d="M0 0 C2.5654594 2.5654594 2.54046087 4.47686668 3 8 C2.34 8 1.68 8 1 8 C0.67 6.68 0.34 5.36 0 4 C-1.32 3.67 -2.64 3.34 -4 3 C-3 1 -3 1 0 0 Z " fill="#4F4D53" transform="translate(244,236)"/>
<path d="M0 0 C1.32 0.33 2.64 0.66 4 1 C2.71034824 2.37562854 1.37310707 3.70766393 0 5 C-0.66 5 -1.32 5 -2 5 C-2.33 5.66 -2.66 6.32 -3 7 C-3 3.48283697 -2.17554415 2.62878252 0 0 Z " fill="#2C2B2E" transform="translate(222,274)"/>
<path d="M0 0 C0.99 0 1.98 0 3 0 C3.33 1.65 3.66 3.3 4 5 C2.35 5 0.7 5 -1 5 C-1 4.34 -1 3.68 -1 3 C-1.99 2.67 -2.98 2.34 -4 2 C-2.35 2 -0.7 2 1 2 C0.67 1.34 0.34 0.68 0 0 Z " fill="#9C97A4" transform="translate(252,241)"/>
<path d="M0 0 C1.32 0.33 2.64 0.66 4 1 C4 2.65 4 4.3 4 6 C4.66 6.33 5.32 6.66 6 7 C4.68 7.33 3.36 7.66 2 8 C1.34 5.36 0.68 2.72 0 0 Z " fill="#C3BECE" transform="translate(245,236)"/>
<path d="M0 0 C0.66 0 1.32 0 2 0 C1.625 2.9375 1.625 2.9375 1 6 C0.01 6.495 0.01 6.495 -1 7 C-1.625 4.625 -1.625 4.625 -2 2 C-1.34 1.34 -0.68 0.68 0 0 Z " fill="#F1EAFE" transform="translate(228,208)"/>
<path d="M0 0 C0.33 0.99 0.66 1.98 1 3 C3.01508358 3.73323796 3.01508358 3.73323796 5 4 C3.68 4 2.36 4 1 4 C1.33 4.99 1.66 5.98 2 7 C0.68 6.67 -0.64 6.34 -2 6 C-1.34 4.02 -0.68 2.04 0 0 Z " fill="#39383C" transform="translate(233,279)"/>
<path d="M0 0 C0.66 0 1.32 0 2 0 C2 2.31 2 4.62 2 7 C1.01 7.33 0.02 7.66 -1 8 C-0.67 5.36 -0.34 2.72 0 0 Z " fill="#0C0C0D" transform="translate(194,277)"/>
<path d="M0 0 C1.65 0 3.3 0 5 0 C5.33 0.99 5.66 1.98 6 3 C4.02 3 2.04 3 0 3 C0 2.01 0 1.02 0 0 Z " fill="#D4CEE0" transform="translate(222,251)"/>
</svg>
